<?xml version="1.0" encoding="utf-8"?>
<!-- Generator: Adobe Illustrator 19.0.0, SVG Export Plug-In . SVG Version: 6.00 Build 0)  -->
<svg version="1.1" xmlns="http://www.w3.org/2000/svg" xmlns:xlink="http://www.w3.org/1999/xlink" x="0px" y="0px"
	 viewBox="-93 245 612 792" style="enable-background:new -93 245 612 792;" xml:space="preserve">
<style type="text/css">
	.st0{fill:#FFFFFF;}
	.st1{fill:#F37924;}
	.st2{fill:#F4AE1A;}
</style>
<g id="Layer_2">
	<rect x="-93" y="245" class="st0" width="612" height="792"/>
</g>
<g id="Layer_1">
	<g>
		<polygon id="XMLID_97_" points="31.6,774.3 31.6,825.9 64.1,825.9 64.1,815.4 43,815.4 43,774.3 		"/>
		<path id="XMLID_136_" d="M83.9,815H104l4.4,10.9h12.8l-22.5-51.6h-9.4L67,825.9h12.5L83.9,815z M93.8,789.3l6.3,16H87.5
			L93.8,789.3z"/>
		<polygon id="XMLID_137_" points="166.1,810.2 165.9,810.2 144,774.3 128.5,774.3 128.5,825.9 139.9,825.9 139.9,789.2 140,789.2 
			162.6,825.9 177.4,825.9 177.4,774.3 166.1,774.3 		"/>
		<path id="XMLID_138_" d="M195.1,819.9c2.5,2.4,5.4,4.2,8.8,5.4c3.4,1.3,7.1,1.9,11.2,1.9c3.8,0,7.5-0.4,11.2-1.2
			c3.6-0.8,7.1-2,10.5-3.8v-27h-20.2v10.5h9.3v8.4c-1.1,0.6-2.5,1.2-4.3,1.7c-1.8,0.6-3.9,0.8-6.4,0.8c-2.4,0-4.6-0.4-6.6-1.2
			s-3.7-2-5.1-3.5s-2.5-3.2-3.2-5.2c-0.8-2-1.1-4.2-1.1-6.7c0-2.4,0.4-4.6,1.1-6.6c0.8-2,1.8-3.8,3.2-5.3c1.4-1.5,3.1-2.6,5.1-3.5
			c2-0.8,4.2-1.2,6.6-1.2c2.9,0,5.3,0.4,7.3,1.2c1.9,0.8,3.7,2,5.2,3.6l8-8.8c-2.6-2.4-5.7-4.1-9.2-5.1s-7.3-1.5-11.4-1.5
			c-4,0-7.8,0.6-11.2,1.9c-3.4,1.3-6.3,3.1-8.8,5.4c-2.5,2.4-4.4,5.2-5.8,8.6s-2.1,7.1-2.1,11.2s0.7,7.9,2.1,11.2
			C190.7,814.7,192.6,817.6,195.1,819.9z"/>
		<path id="XMLID_141_" d="M243.5,825.9H256l4.3-10.9h20.1l4.4,10.9h12.8l-22.5-51.6h-9.4L243.5,825.9z M276.5,805.4h-12.6l6.3-16
			L276.5,805.4z"/>
		<path id="XMLID_144_" d="M316.3,805.3h5.6l10.8,20.6h13.6l-13.1-21.8c3.6-0.7,6.4-2.3,8.3-4.8c1.9-2.6,2.8-5.7,2.8-9.3
			c0-3-0.5-5.5-1.6-7.5c-1-2-2.5-3.6-4.2-4.8c-1.8-1.2-3.8-2-6.2-2.6c-2.4-0.5-4.8-0.8-7.5-0.8h-20v51.6h11.4v-20.6H316.3z
			 M316.3,783.9h7.4c1,0,2.1,0.1,3.1,0.2c1.1,0.1,2,0.4,2.8,0.8c0.8,0.4,1.5,1,2,1.8s0.8,1.8,0.8,3.1c0,1.4-0.3,2.5-0.9,3.3
			s-1.4,1.3-2.3,1.7s-2,0.6-3.1,0.7c-1.1,0.1-2.2,0.1-3.2,0.1h-6.7v-11.7H316.3z"/>
		<path id="XMLID_147_" d="M371.2,774.3l-22.3,51.6h12.5l4.3-10.9h20.1l4.4,10.9H403l-22.5-51.6H371.2z M369.3,805.4l6.3-16l6.3,16
			H369.3z"/>
		<path id="XMLID_150_" class="st1" d="M60.5,882.2c-1.4-1.6-3.2-2.9-5.2-3.8c-2.1-0.9-4.4-1.3-6.9-1.3c-2.7,0-5.3,0.4-7.7,1.3
			c-2.4,0.9-4.5,2.1-6.3,3.8c-1.8,1.6-3.2,3.6-4.2,5.9c-1,2.3-1.5,4.8-1.5,7.7c0,2.8,0.5,5.4,1.5,7.7s2.4,4.2,4.2,5.9
			c1.8,1.6,3.9,2.9,6.3,3.8c2.4,0.9,5,1.3,7.7,1.3c2.9,0,5.6-0.6,8.3-1.8s4.9-2.9,6.6-5.2l-7.7-5.6c-0.9,1.3-2,2.3-3.2,3.1
			s-2.8,1.2-4.6,1.2c-2.1,0-3.9-0.6-5.4-1.9c-1.5-1.2-2.4-2.9-2.8-5H65v-3.4c0-2.8-0.4-5.4-1.2-7.7C63.1,885.8,62,883.8,60.5,882.2z
			 M39.7,891.7c0-0.9,0.3-1.7,0.6-2.5c0.4-0.8,0.9-1.5,1.5-2.1c0.7-0.6,1.4-1.1,2.4-1.5c0.9-0.4,2-0.6,3.2-0.6c2,0,3.6,0.7,4.9,2
			s1.9,2.9,1.8,4.7L39.7,891.7L39.7,891.7z"/>
		<path id="XMLID_151_" class="st1" d="M110,910.6c1.8-1.4,3.3-3.2,4.3-5.3c1.1-2.1,1.6-4.6,1.6-7.5c0-3-0.6-5.4-1.7-7.2
			c-1.2-1.8-2.6-3.2-4.4-4.3c-1.8-1.1-3.7-1.9-5.7-2.5s-4-1.2-5.7-1.8c-1.8-0.6-3.2-1.3-4.4-2.1s-1.7-2-1.7-3.6c0-1,0.2-1.8,0.7-2.5
			s1.1-1.2,1.9-1.6c0.8-0.4,1.6-0.7,2.5-0.9s1.7-0.3,2.6-0.3c1.4,0,2.9,0.3,4.5,0.8c1.6,0.6,2.8,1.4,3.8,2.6l7.8-8.5
			c-2.2-1.9-4.6-3.3-7.4-4.2c-2.7-0.8-5.5-1.2-8.5-1.2c-2.5,0-5,0.4-7.4,1.1c-2.4,0.7-4.5,1.8-6.3,3.2s-3.3,3.2-4.4,5.2
			c-1.1,2.1-1.6,4.5-1.6,7.3c0,2.9,0.6,5.2,1.8,6.9s2.7,3.2,4.5,4.2c1.8,1.1,3.7,1.9,5.8,2.6c2.1,0.6,4,1.3,5.8,1.9
			c1.8,0.6,3.3,1.4,4.5,2.3c1.2,0.9,1.8,2.1,1.8,3.7c0,0.9-0.2,1.7-0.7,2.4s-1.1,1.2-1.8,1.7c-0.8,0.4-1.6,0.8-2.6,1
			c-0.9,0.2-1.9,0.3-2.8,0.3c-1.9,0-3.7-0.4-5.5-1.3c-1.8-0.9-3.2-2.1-4.4-3.6l-8.1,8.9c2.5,2.3,5.2,3.9,8,5c2.9,1,6,1.5,9.3,1.5
			c2.7,0,5.2-0.3,7.6-1C106.1,913,108.2,912,110,910.6z"/>
		<path id="XMLID_154_" class="st1" d="M166.9,865c-1.8-1.2-3.9-2-6.2-2.5c-2.4-0.5-4.9-0.7-7.6-0.7h-19.2v51.6h11.4v-20.1h8.3
			c2.7,0,5.2-0.3,7.6-0.8c2.3-0.5,4.3-1.4,6.1-2.6c1.7-1.2,3-2.8,4-4.9c1-2,1.5-4.6,1.5-7.6c0-3.1-0.5-5.6-1.6-7.6
			C170.1,867.8,168.7,866.2,166.9,865z M160.2,880.5c-0.5,0.8-1.1,1.4-1.8,1.9c-0.8,0.5-1.6,0.8-2.6,1c-0.9,0.2-1.9,0.3-3,0.3h-7.6
			v-12.2h5.8c1.1,0,2.2,0.1,3.4,0.2c1.2,0.1,2.2,0.4,3.2,0.8c0.9,0.4,1.7,1.1,2.3,1.9c0.6,0.8,0.9,1.9,0.9,3.2
			C160.9,878.7,160.7,879.7,160.2,880.5z"/>
		<path id="XMLID_157_" class="st1" d="M240.2,898.8c1.4-3.4,2.1-7.1,2.1-11.2s-0.7-7.9-2.1-11.2c-1.4-3.4-3.3-6.2-5.8-8.6
			c-2.5-2.4-5.4-4.2-8.8-5.4c-3.4-1.3-7.1-1.9-11.2-1.9c-4,0-7.8,0.6-11.2,1.9c-3.4,1.3-6.3,3.1-8.8,5.4c-2.5,2.4-4.4,5.2-5.8,8.6
			c-1.4,3.4-2.1,7.1-2.1,11.2s0.7,7.9,2.1,11.2c1.4,3.4,3.3,6.2,5.8,8.6c2.5,2.4,5.4,4.2,8.8,5.4c3.4,1.3,7.1,1.9,11.2,1.9
			c4,0,7.8-0.6,11.2-1.9c3.4-1.3,6.3-3.1,8.8-5.4C236.9,905,238.9,902.2,240.2,898.8z M229.4,894.3c-0.8,2-1.8,3.8-3.2,5.2
			c-1.4,1.5-3.1,2.6-5.1,3.5c-2,0.8-4.2,1.2-6.6,1.2s-4.6-0.4-6.6-1.2s-3.7-2-5.1-3.5s-2.5-3.2-3.2-5.2c-0.8-2-1.1-4.2-1.1-6.7
			c0-2.4,0.4-4.6,1.1-6.6c0.8-2,1.8-3.8,3.2-5.3c1.4-1.5,3.1-2.6,5.1-3.5c2-0.8,4.2-1.2,6.6-1.2s4.6,0.4,6.6,1.2s3.7,2,5.1,3.5
			s2.5,3.2,3.2,5.3c0.8,2,1.1,4.3,1.1,6.6C230.5,890,230.1,892.3,229.4,894.3z"/>
		<path id="XMLID_160_" class="st1" d="M296.2,886.8c1.9-2.6,2.8-5.7,2.8-9.3c0-3-0.5-5.5-1.6-7.5c-1-2-2.5-3.6-4.2-4.8
			c-1.8-1.2-3.8-2-6.2-2.6c-2.4-0.5-4.8-0.8-7.5-0.8h-20v51.6h11.4v-20.6h5.6l10.8,20.6H301l-13.1-21.8
			C291.5,890.9,294.3,889.3,296.2,886.8z M286.3,880.7c-0.6,0.8-1.4,1.3-2.3,1.7s-2,0.6-3.1,0.7c-1.1,0.1-2.2,0.1-3.2,0.1H271v-11.7
			h7.4c1,0,2.1,0.1,3.1,0.2c1.1,0.1,2,0.4,2.8,0.8c0.8,0.4,1.5,1,2,1.8s0.8,1.8,0.8,3.1C287.2,878.8,286.9,879.9,286.3,880.7z"/>
		<polygon id="XMLID_161_" class="st1" points="325,913.4 336.4,913.4 336.4,871.9 351.1,871.9 351.1,861.8 310.3,861.8 
			310.3,871.9 325,871.9 		"/>
		<path id="XMLID_162_" class="st1" d="M393.6,886.2c-1.8-1.1-3.7-1.9-5.7-2.5s-4-1.2-5.7-1.8c-1.8-0.6-3.2-1.3-4.4-2.1
			c-1.2-0.8-1.7-2-1.7-3.6c0-1,0.2-1.8,0.7-2.5s1.1-1.2,1.9-1.6c0.8-0.4,1.6-0.7,2.5-0.9s1.7-0.3,2.6-0.3c1.4,0,2.9,0.3,4.5,0.8
			c1.6,0.6,2.8,1.4,3.8,2.6l7.8-8.5c-2.2-1.9-4.6-3.3-7.4-4.2c-2.7-0.8-5.5-1.2-8.5-1.2c-2.5,0-5,0.4-7.4,1.1s-4.5,1.8-6.3,3.2
			s-3.3,3.2-4.4,5.2c-1.1,2.1-1.6,4.5-1.6,7.3c0,2.9,0.6,5.2,1.8,6.9c1.2,1.7,2.7,3.2,4.5,4.2c1.8,1.1,3.7,1.9,5.8,2.6
			c2.1,0.6,4,1.3,5.8,1.9c1.8,0.6,3.3,1.4,4.5,2.3c1.2,0.9,1.8,2.1,1.8,3.7c0,0.9-0.2,1.7-0.7,2.4s-1.1,1.2-1.8,1.7
			c-0.8,0.4-1.6,0.8-2.6,1c-0.9,0.2-1.9,0.3-2.8,0.3c-1.9,0-3.7-0.4-5.5-1.3c-1.8-0.9-3.2-2.1-4.4-3.6l-8.1,8.9c2.5,2.3,5.2,3.9,8,5
			c2.9,1,6,1.5,9.3,1.5c2.7,0,5.2-0.3,7.6-1s4.5-1.7,6.3-3.1c1.8-1.4,3.3-3.2,4.3-5.3c1.1-2.1,1.6-4.6,1.6-7.5c0-3-0.6-5.4-1.8-7.2
			C396.9,888.7,395.4,887.3,393.6,886.2z"/>
		<path id="XMLID_165_" d="M43.4,941.1l-14.1,32.1h4.3l3.3-7.9h16l3.3,7.9h4.4L47,941.1H43.4z M38.3,961.8L45,946h0.1l6.3,15.8H38.3
			z"/>
		<path id="XMLID_166_" d="M87.7,958.1c-0.9-0.7-1.9-1.3-3.1-1.7c-1.2-0.5-2.4-0.9-3.6-1.3c-1.3-0.4-2.3-0.8-3.2-1.2
			s-1.6-0.8-2.1-1.3s-0.9-1-1.1-1.5c-0.2-0.6-0.3-1.2-0.3-1.9c0-0.9,0.2-1.8,0.6-2.4c0.4-0.7,0.9-1.3,1.6-1.7c0.7-0.4,1.4-0.7,2.2-1
			s1.6-0.3,2.5-0.3c1.1,0,2.3,0.2,3.3,0.7c1.1,0.5,1.9,1.2,2.5,2.2l3.1-2.7c-1.2-1.4-2.5-2.4-4-2.9c-1.5-0.6-3.2-0.8-5-0.8
			c-1.4,0-2.8,0.2-4.1,0.6c-1.3,0.4-2.5,1-3.5,1.7s-1.8,1.7-2.4,2.9c-0.6,1.1-0.9,2.5-0.9,4c0,1.3,0.2,2.5,0.6,3.4
			c0.4,1,1,1.8,1.7,2.4c0.7,0.7,1.5,1.3,2.5,1.7c1,0.5,2,0.9,3.2,1.2c1.4,0.5,2.7,0.9,3.7,1.3c1.1,0.4,1.9,0.8,2.6,1.2
			c0.7,0.5,1.2,1,1.5,1.6s0.5,1.4,0.5,2.4c0,0.9-0.2,1.7-0.6,2.4c-0.4,0.7-1,1.3-1.6,1.7c-0.7,0.5-1.4,0.8-2.2,1.1
			c-0.8,0.2-1.7,0.4-2.5,0.4c-1.4,0-2.7-0.3-3.9-0.9c-1.2-0.6-2.2-1.5-2.9-2.7l-3.3,2.7c0.5,0.8,1.2,1.5,1.9,2.1
			c0.8,0.6,1.6,1,2.4,1.4c0.9,0.3,1.8,0.6,2.7,0.8s1.9,0.3,2.8,0.3c1.5,0,2.9-0.2,4.2-0.6c1.4-0.4,2.6-1,3.6-1.7
			c1-0.8,1.9-1.7,2.5-2.9s1-2.6,1-4.2c0-1.6-0.3-2.9-0.8-3.9C89.3,959.7,88.6,958.8,87.7,958.1z"/>
		<path id="XMLID_167_" d="M119.8,958.1c-0.9-0.7-1.9-1.3-3.1-1.7c-1.2-0.5-2.4-0.9-3.6-1.3c-1.3-0.4-2.3-0.8-3.2-1.2
			s-1.6-0.8-2.1-1.3s-0.9-1-1.1-1.5c-0.2-0.6-0.3-1.2-0.3-1.9c0-0.9,0.2-1.8,0.6-2.4c0.4-0.7,0.9-1.3,1.6-1.7c0.6-0.4,1.4-0.7,2.2-1
			s1.6-0.3,2.5-0.3c1.1,0,2.2,0.2,3.3,0.7s1.9,1.2,2.5,2.2l3.1-2.7c-1.2-1.4-2.5-2.4-4-2.9c-1.5-0.6-3.2-0.8-5-0.8
			c-1.4,0-2.8,0.2-4.1,0.6s-2.5,1-3.5,1.7c-1,0.8-1.8,1.7-2.4,2.9c-0.6,1.1-0.9,2.5-0.9,4c0,1.3,0.2,2.5,0.6,3.4
			c0.4,1,1,1.8,1.7,2.4c0.7,0.7,1.5,1.3,2.5,1.7c1,0.5,2,0.9,3.2,1.2c1.4,0.5,2.7,0.9,3.7,1.3c1.1,0.4,1.9,0.8,2.6,1.2
			c0.7,0.5,1.2,1,1.5,1.6s0.5,1.4,0.5,2.4c0,0.9-0.2,1.7-0.6,2.4c-0.4,0.7-1,1.3-1.6,1.7c-0.7,0.5-1.4,0.8-2.2,1.1
			c-0.8,0.2-1.7,0.4-2.5,0.4c-1.4,0-2.7-0.3-3.9-0.9c-1.2-0.6-2.2-1.5-2.9-2.7l-3.3,2.7c0.5,0.8,1.2,1.5,1.9,2.1
			c0.8,0.6,1.6,1,2.4,1.4c0.9,0.3,1.8,0.6,2.7,0.8s1.9,0.3,2.8,0.3c1.5,0,2.9-0.2,4.2-0.6c1.4-0.4,2.6-1,3.6-1.7
			c1-0.8,1.9-1.7,2.5-2.9s1-2.6,1-4.2c0-1.6-0.3-2.9-0.8-3.9C121.4,959.7,120.6,958.8,119.8,958.1z"/>
		<path id="XMLID_170_" d="M162.8,945.1c-1.5-1.5-3.3-2.7-5.3-3.5s-4.3-1.3-6.7-1.3s-4.7,0.4-6.7,1.3c-2,0.8-3.8,2-5.3,3.5
			s-2.7,3.3-3.5,5.3c-0.8,2.1-1.2,4.3-1.2,6.7s0.4,4.7,1.2,6.7c0.8,2.1,2,3.9,3.5,5.3c1.5,1.5,3.3,2.7,5.3,3.5s4.3,1.3,6.7,1.3
			s4.7-0.4,6.7-1.3c2-0.8,3.8-2,5.3-3.5c1.5-1.5,2.7-3.3,3.5-5.3c0.8-2.1,1.2-4.3,1.2-6.7s-0.4-4.7-1.2-6.7
			C165.4,948.4,164.3,946.6,162.8,945.1z M162.5,962.4c-0.6,1.6-1.5,3-2.6,4.2s-2.5,2.2-4,2.9c-1.6,0.7-3.3,1-5.1,1s-3.6-0.3-5.1-1
			c-1.6-0.7-2.9-1.6-4-2.9c-1.1-1.2-2-2.6-2.6-4.2c-0.6-1.6-0.9-3.3-0.9-5.2c0-1.8,0.3-3.6,0.9-5.2c0.6-1.6,1.5-3,2.6-4.2
			s2.5-2.2,4-2.9s3.3-1,5.1-1s3.6,0.3,5.1,1c1.6,0.7,2.9,1.6,4,2.9c1.1,1.2,2,2.6,2.6,4.2c0.6,1.6,0.9,3.3,0.9,5.2
			C163.4,959,163.1,960.8,162.5,962.4z"/>
		<path id="XMLID_171_" d="M200.2,969.4c-1.5,0.8-3.3,1.2-5.3,1.2c-1.8,0-3.5-0.3-5-1s-2.8-1.6-3.9-2.8s-1.9-2.6-2.5-4.2
			c-0.6-1.6-0.9-3.4-0.9-5.2s0.3-3.4,0.9-5.1c0.6-1.6,1.5-3,2.5-4.3c1.1-1.2,2.4-2.2,3.9-2.9s3.1-1.1,4.9-1.1c1.5,0,3,0.3,4.4,1
			s2.6,1.6,3.6,2.9l3.3-2.4c-1.4-1.8-3-3.1-5.1-3.9c-2-0.8-4.1-1.2-6.3-1.2c-2.4,0-4.6,0.4-6.6,1.3c-2,0.9-3.7,2.1-5.2,3.6
			c-1.4,1.5-2.6,3.3-3.4,5.3s-1.2,4.3-1.2,6.6c0,2.4,0.4,4.7,1.2,6.8s2,3.8,3.4,5.3c1.5,1.5,3.2,2.7,5.2,3.5s4.1,1.3,6.4,1.3
			c2.6,0,4.9-0.5,6.9-1.4s3.8-2.3,5.2-4.3l-2.9-2.4C203.1,967.5,201.8,968.6,200.2,969.4z"/>
		<rect id="XMLID_172_" x="219.3" y="941.1" width="3.8" height="32.1"/>
		<path id="XMLID_175_" d="M248.4,941.1l-14.1,32.1h4.3l3.3-7.9h16l3.3,7.9h4.4L252,941.1H248.4z M243.3,961.8L250,946h0.1l6.3,15.8
			H243.3z"/>
		<polygon id="XMLID_176_" points="269,944.7 279.6,944.7 279.6,973.2 283.5,973.2 283.5,944.7 294.1,944.7 294.1,941.1 269,941.1 
					"/>
		<rect id="XMLID_177_" x="305.4" y="941.1" width="3.8" height="32.1"/>
		<path id="XMLID_180_" d="M351,945.1c-1.5-1.5-3.3-2.7-5.3-3.5s-4.3-1.3-6.7-1.3s-4.7,0.4-6.7,1.3c-2,0.8-3.8,2-5.3,3.5
			s-2.7,3.3-3.5,5.3c-0.8,2.1-1.2,4.3-1.2,6.7s0.4,4.7,1.2,6.7c0.8,2.1,2,3.9,3.5,5.3c1.5,1.5,3.3,2.7,5.3,3.5s4.3,1.3,6.7,1.3
			s4.7-0.4,6.7-1.3c2-0.8,3.8-2,5.3-3.5s2.7-3.3,3.5-5.3c0.8-2.1,1.2-4.3,1.2-6.7s-0.4-4.7-1.2-6.7
			C353.7,948.4,352.5,946.6,351,945.1z M350.7,962.4c-0.6,1.6-1.5,3-2.6,4.2s-2.5,2.2-4,2.9c-1.6,0.7-3.3,1-5.1,1
			c-1.9,0-3.6-0.3-5.1-1c-1.6-0.7-2.9-1.6-4-2.9c-1.1-1.2-2-2.6-2.6-4.2c-0.6-1.6-0.9-3.3-0.9-5.2c0-1.8,0.3-3.6,0.9-5.2
			c0.6-1.6,1.5-3,2.6-4.2s2.5-2.2,4-2.9c1.6-0.7,3.3-1,5.1-1c1.9,0,3.6,0.3,5.1,1c1.6,0.7,2.9,1.6,4,2.9c1.1,1.2,2,2.6,2.6,4.2
			c0.6,1.6,0.9,3.3,0.9,5.2C351.7,959,351.4,960.8,350.7,962.4z"/>
		<polygon id="XMLID_181_" points="392.2,967.8 392.1,967.8 373.5,941.1 368.7,941.1 368.7,973.2 372.5,973.2 372.5,946.6 
			372.6,946.6 391.2,973.2 396,973.2 396,941.1 392.2,941.1 		"/>
		<polygon id="XMLID_182_" class="st1" points="251.8,637 235.4,721.7 299.6,619.4 		"/>
		<polygon id="XMLID_183_" points="377.1,446.2 334.1,567.4 419.5,430.8 		"/>
		<polygon id="XMLID_184_" points="255.7,579.3 283.6,558.1 312.9,570.4 323,549.2 312.8,561.1 283.6,538.8 		"/>
		<polygon id="XMLID_185_" points="144.3,483.3 126.6,474.5 108.2,453.1 116,483.3 135.9,494.7 		"/>
		<polygon id="XMLID_186_" class="st1" points="116.6,515.4 147.2,526.7 164.5,546 165.7,514.2 193.6,473.8 214.4,472.9 
			235.2,473.8 263.1,514.2 264.3,546 281.5,526.7 312.1,515.4 329,465.5 310.9,496.7 280.9,505.6 274.4,490.1 278.8,472.6 
			301.7,463.1 329,430.8 310.6,366 214.4,310.1 118.2,366 99.8,430.8 127,463.1 149.9,472.6 154.4,490.1 147.8,505.6 117.8,496.7 
			99.8,465.5 		"/>
		<polygon id="XMLID_187_" points="293.3,494.7 313.2,483.3 320.9,453.1 302.5,474.5 284.9,483.3 		"/>
		<polygon id="XMLID_188_" points="51.8,446.2 9.5,430.8 94.8,567.4 		"/>
		<polygon id="XMLID_189_" points="146.6,538.8 117.4,561.1 107.2,549.2 117.3,570.4 146.6,558.1 174.5,579.3 		"/>
		<polygon id="XMLID_190_" class="st2" points="214.4,486.1 199.1,486.1 176.4,515.5 176.4,547.6 197.5,539.8 210.7,515.2 
			214.4,515.2 218,515.2 231.3,539.8 252.3,547.6 252.3,515.5 229.6,486.1 		"/>
		<polygon id="XMLID_191_" class="st1" points="255.7,590.2 301.6,576.4 284.1,570.7 		"/>
		<polygon id="XMLID_192_" class="st1" points="128.6,576.4 174.5,590.2 146.1,570.7 		"/>
		<polygon id="XMLID_193_" points="217.2,529.8 214.4,529.8 211.6,529.8 204.9,547.6 204.9,571.9 195.5,550.9 176.4,560 
			197.5,600.2 214.4,696.5 231.3,600.2 252.3,560 233.2,550.9 223.8,571.9 223.8,547.6 		"/>
		<polygon id="XMLID_194_" class="st1" points="176.4,637 128.6,619.4 192.8,721.7 		"/>
	</g>
</g>
</svg>
