<?xml version="1.0" encoding="utf-8"?>
<!-- Generator: Adobe Illustrator 19.0.0, SVG Export Plug-In . SVG Version: 6.00 Build 0)  -->
<svg version="1.1" id="Layer_1" xmlns="http://www.w3.org/2000/svg" xmlns:xlink="http://www.w3.org/1999/xlink" x="0px" y="0px"
	 width="1215px" height="367px" viewBox="0 0 1215 367" style="enable-background:new 0 0 1215 367;" xml:space="preserve">
<style type="text/css">
	.st0{fill:#FFFFFF;}
</style>
<g id="XMLID_1_">
	<g id="XMLID_64_">
		<polygon id="XMLID_77_" class="st0" points="241.7,174 235.8,160.3 239.8,144.7 260.2,136.2 284.4,107.4 268.1,49.8 182.4,0 
			96.8,49.8 80.4,107.4 104.7,136.2 125,144.7 129,160.3 123.2,174 96.5,166.1 80.4,138.3 95.4,182.7 122.6,192.8 138,210 
			139,181.7 163.9,145.7 182.4,144.9 200.9,145.7 225.8,181.7 226.8,210 242.2,192.8 269.4,182.7 284.4,138.3 268.4,166.1 		"/>
		<polygon id="XMLID_76_" class="st0" points="245.2,154.2 260.9,146.3 277.3,127.3 270.4,154.2 252.7,164.3 		"/>
		<polygon id="XMLID_75_" class="st0" points="120,154.2 104.3,146.3 87.9,127.3 94.8,154.2 112.5,164.3 		"/>
		<polygon id="XMLID_74_" class="st0" points="196,156.7 182.4,156.7 168.8,156.7 148.6,182.8 148.6,211.4 167.4,204.5 179.2,182.5 
			182.4,182.5 185.6,182.5 197.5,204.5 216.2,211.4 216.2,182.8 		"/>
		<polygon id="XMLID_73_" class="st0" points="199.2,214.3 190.8,233.1 190.8,211.4 184.9,195.6 182.4,195.6 179.9,195.6 174,211.4 
			174,233.1 165.6,214.3 148.6,222.5 167.4,258.2 182.4,344 197.5,258.2 216.2,222.5 		"/>
		<polygon id="XMLID_72_" class="st0" points="87,212.9 96.1,223.4 122.1,203.6 146.9,239.6 122.1,220.8 96,231.7 		"/>
		<polygon id="XMLID_71_" class="st0" points="279.1,212.9 270,223.4 244.1,203.6 219.2,239.6 244.1,220.8 270.2,231.7 		"/>
		<polygon id="XMLID_70_" class="st0" points="106.1,237.1 121.7,232 146.9,249.3 		"/>
		<polygon id="XMLID_69_" class="st0" points="260.1,237.1 244.5,232 219.2,249.3 		"/>
		<polygon id="XMLID_68_" class="st0" points="106.1,275.3 148.6,291 163.2,366.4 		"/>
		<polygon id="XMLID_67_" class="st0" points="258.3,275.3 215.7,291 201.2,366.4 		"/>
		<polygon id="XMLID_66_" class="st0" points="327.3,121.1 365,107.4 289,229 		"/>
		<polygon id="XMLID_65_" class="st0" points="37.7,121.1 0,107.4 76,229 		"/>
	</g>
	<g id="XMLID_125_">
		<path id="XMLID_126_" class="st0" d="M447.7,106.4h33.8v122.3h62.7V260h-96.5V106.4z"/>
		<path id="XMLID_128_" class="st0" d="M748.8,106.4h104.3v31.2h-70.5v28.6h66.6v31.2h-66.6v31.2h74.4V260H748.8V106.4z"/>
		<path id="XMLID_130_" class="st0" d="M1119.3,106.4h28l66.8,153.6h-38.2l-13.2-32.5H1103l-12.8,32.5h-37.3L1119.3,106.4z
			 M1132.3,151.1l-18.7,47.7h37.5L1132.3,151.1z"/>
	</g>
</g>
</svg>
