<?xml version="1.0" encoding="utf-8"?>
<!-- Generator: Adobe Illustrator 19.0.0, SVG Export Plug-In . SVG Version: 6.00 Build 0)  -->
<svg version="1.1" id="Layer_1" xmlns="http://www.w3.org/2000/svg" xmlns:xlink="http://www.w3.org/1999/xlink" x="0px" y="0px"
	 width="612px" height="792px" viewBox="204 -372 612 792" style="enable-background:new 204 -372 612 792;" xml:space="preserve">
<style type="text/css">
	.st0{fill:#FFFFFF;}
	.st1{fill:#F37924;}
	.st2{fill:#F4AE1A;}
</style>
<rect x="204" y="-372" class="st0" width="612" height="792"/>
<g id="Layer_1_1_">
	<g>
		<polygon id="XMLID_97_" points="327.1,156.2 327.1,207.8 359.6,207.8 359.6,197.3 338.5,197.3 338.5,156.2 		"/>
		<path id="XMLID_136_" d="M379.4,196.9h20.1l4.4,10.9h12.8l-22.5-51.6h-9.4l-22.3,51.6H375L379.4,196.9z M389.3,171.2l6.3,16H383
			L389.3,171.2z"/>
		<polygon id="XMLID_137_" points="461.6,192.1 461.4,192.1 439.5,156.2 424,156.2 424,207.8 435.4,207.8 435.4,171.1 435.5,171.1 
			458.1,207.8 472.9,207.8 472.9,156.2 461.6,156.2 		"/>
		<path id="XMLID_138_" d="M490.6,201.8c2.5,2.4,5.4,4.2,8.8,5.4c3.4,1.3,7.1,1.9,11.2,1.9c3.8,0,7.5-0.4,11.2-1.2
			c3.6-0.8,7.1-2,10.5-3.8v-27h-20.2v10.5h9.3v8.4c-1.1,0.6-2.5,1.2-4.3,1.7c-1.8,0.6-3.9,0.8-6.4,0.8c-2.4,0-4.6-0.4-6.6-1.2
			s-3.7-2-5.1-3.5s-2.5-3.2-3.2-5.2c-0.8-2-1.1-4.2-1.1-6.7c0-2.4,0.4-4.6,1.1-6.6c0.8-2,1.8-3.8,3.2-5.3s3.1-2.6,5.1-3.5
			c2-0.8,4.2-1.2,6.6-1.2c2.9,0,5.3,0.4,7.3,1.2c1.9,0.8,3.7,2,5.2,3.6l8-8.8c-2.6-2.4-5.7-4.1-9.2-5.1s-7.3-1.5-11.4-1.5
			c-4,0-7.8,0.6-11.2,1.9c-3.4,1.3-6.3,3.1-8.8,5.4c-2.5,2.4-4.4,5.2-5.8,8.6s-2.1,7.1-2.1,11.2s0.7,7.9,2.1,11.2
			C486.2,196.6,488.1,199.5,490.6,201.8z"/>
		<path id="XMLID_141_" d="M539,207.8h12.5l4.3-10.9h20.1l4.4,10.9h12.8l-22.5-51.6h-9.4L539,207.8z M572,187.3h-12.6l6.3-16
			L572,187.3z"/>
		<path id="XMLID_144_" d="M611.8,187.2h5.6l10.8,20.6h13.6L628.7,186c3.6-0.7,6.4-2.3,8.3-4.8c1.9-2.6,2.8-5.7,2.8-9.3
			c0-3-0.5-5.5-1.6-7.5c-1-2-2.5-3.6-4.2-4.8c-1.8-1.2-3.8-2-6.2-2.6c-2.4-0.5-4.8-0.8-7.5-0.8h-20v51.6h11.4L611.8,187.2
			L611.8,187.2L611.8,187.2z M611.8,165.8h7.4c1,0,2.1,0.1,3.1,0.2c1.1,0.1,2,0.4,2.8,0.8c0.8,0.4,1.5,1,2,1.8s0.8,1.8,0.8,3.1
			c0,1.4-0.3,2.5-0.9,3.3c-0.6,0.8-1.4,1.3-2.3,1.7c-0.9,0.4-2,0.6-3.1,0.7c-1.1,0.1-2.2,0.1-3.2,0.1h-6.7v-11.7L611.8,165.8
			L611.8,165.8z"/>
		<path id="XMLID_147_" d="M666.7,156.2l-22.3,51.6h12.5l4.3-10.9h20.1l4.4,10.9h12.8L676,156.2H666.7z M664.8,187.3l6.3-16l6.3,16
			H664.8z"/>
		<path id="XMLID_150_" class="st1" d="M356,264.1c-1.4-1.6-3.2-2.9-5.2-3.8c-2.1-0.9-4.4-1.3-6.9-1.3c-2.7,0-5.3,0.4-7.7,1.3
			c-2.4,0.9-4.5,2.1-6.3,3.8c-1.8,1.6-3.2,3.6-4.2,5.9s-1.5,4.8-1.5,7.7c0,2.8,0.5,5.4,1.5,7.7s2.4,4.2,4.2,5.9
			c1.8,1.6,3.9,2.9,6.3,3.8s5,1.3,7.7,1.3c2.9,0,5.6-0.6,8.3-1.8c2.7-1.2,4.9-2.9,6.6-5.2l-7.7-5.6c-0.9,1.3-2,2.3-3.2,3.1
			s-2.8,1.2-4.6,1.2c-2.1,0-3.9-0.6-5.4-1.9c-1.5-1.2-2.4-2.9-2.8-5h25.4v-3.4c0-2.8-0.4-5.4-1.2-7.7
			C358.6,267.7,357.5,265.7,356,264.1z M335.2,273.6c0-0.9,0.3-1.7,0.6-2.5c0.4-0.8,0.9-1.5,1.5-2.1c0.7-0.6,1.4-1.1,2.4-1.5
			c0.9-0.4,2-0.6,3.2-0.6c2,0,3.6,0.7,4.9,2s1.9,2.9,1.8,4.7H335.2L335.2,273.6z"/>
		<path id="XMLID_151_" class="st1" d="M405.5,292.5c1.8-1.4,3.3-3.2,4.3-5.3c1.1-2.1,1.6-4.6,1.6-7.5c0-3-0.6-5.4-1.7-7.2
			c-1.2-1.8-2.6-3.2-4.4-4.3c-1.8-1.1-3.7-1.9-5.7-2.5s-4-1.2-5.7-1.8c-1.8-0.6-3.2-1.3-4.4-2.1s-1.7-2-1.7-3.6c0-1,0.2-1.8,0.7-2.5
			c0.5-0.7,1.1-1.2,1.9-1.6c0.8-0.4,1.6-0.7,2.5-0.9s1.7-0.3,2.6-0.3c1.4,0,2.9,0.3,4.5,0.8c1.6,0.6,2.8,1.4,3.8,2.6l7.8-8.5
			c-2.2-1.9-4.6-3.3-7.4-4.2c-2.7-0.8-5.5-1.2-8.5-1.2c-2.5,0-5,0.4-7.4,1.1c-2.4,0.7-4.5,1.8-6.3,3.2s-3.3,3.2-4.4,5.2
			c-1.1,2.1-1.6,4.5-1.6,7.3c0,2.9,0.6,5.2,1.8,6.9c1.2,1.7,2.7,3.2,4.5,4.2c1.8,1.1,3.7,1.9,5.8,2.6c2.1,0.6,4,1.3,5.8,1.9
			s3.3,1.4,4.5,2.3s1.8,2.1,1.8,3.7c0,0.9-0.2,1.7-0.7,2.4s-1.1,1.2-1.8,1.7c-0.8,0.4-1.6,0.8-2.6,1c-0.9,0.2-1.9,0.3-2.8,0.3
			c-1.9,0-3.7-0.4-5.5-1.3s-3.2-2.1-4.4-3.6l-8.1,8.9c2.5,2.3,5.2,3.9,8,5c2.9,1,6,1.5,9.3,1.5c2.7,0,5.2-0.3,7.6-1
			C401.6,294.9,403.7,293.9,405.5,292.5z"/>
		<path id="XMLID_154_" class="st1" d="M462.4,246.9c-1.8-1.2-3.9-2-6.2-2.5c-2.4-0.5-4.9-0.7-7.6-0.7h-19.2v51.6h11.4v-20.1h8.3
			c2.7,0,5.2-0.3,7.6-0.8c2.3-0.5,4.3-1.4,6.1-2.6c1.7-1.2,3-2.8,4-4.9c1-2,1.5-4.6,1.5-7.6c0-3.1-0.5-5.6-1.6-7.6
			C465.6,249.7,464.2,248.1,462.4,246.9z M455.7,262.4c-0.5,0.8-1.1,1.4-1.8,1.9c-0.8,0.5-1.6,0.8-2.6,1c-0.9,0.2-1.9,0.3-3,0.3
			h-7.6v-12.2h5.8c1.1,0,2.2,0.1,3.4,0.2c1.2,0.1,2.2,0.4,3.2,0.8c0.9,0.4,1.7,1.1,2.3,1.9c0.6,0.8,0.9,1.9,0.9,3.2
			C456.4,260.6,456.2,261.6,455.7,262.4z"/>
		<path id="XMLID_157_" class="st1" d="M535.7,280.7c1.4-3.4,2.1-7.1,2.1-11.2s-0.7-7.9-2.1-11.2c-1.4-3.4-3.3-6.2-5.8-8.6
			c-2.5-2.4-5.4-4.2-8.8-5.4c-3.4-1.3-7.1-1.9-11.2-1.9c-4,0-7.8,0.6-11.2,1.9c-3.4,1.3-6.3,3.1-8.8,5.4c-2.5,2.4-4.4,5.2-5.8,8.6
			c-1.4,3.4-2.1,7.1-2.1,11.2s0.7,7.9,2.1,11.2c1.4,3.4,3.3,6.2,5.8,8.6s5.4,4.2,8.8,5.4c3.4,1.3,7.1,1.9,11.2,1.9
			c4,0,7.8-0.6,11.2-1.9s6.3-3.1,8.8-5.4C532.4,286.9,534.4,284.1,535.7,280.7z M524.9,276.2c-0.8,2-1.8,3.8-3.2,5.2
			c-1.4,1.5-3.1,2.6-5.1,3.5c-2,0.8-4.2,1.2-6.6,1.2s-4.6-0.4-6.6-1.2s-3.7-2-5.1-3.5s-2.5-3.2-3.2-5.2c-0.8-2-1.1-4.2-1.1-6.7
			c0-2.4,0.4-4.6,1.1-6.6c0.8-2,1.8-3.8,3.2-5.3c1.4-1.5,3.1-2.6,5.1-3.5c2-0.8,4.2-1.2,6.6-1.2s4.6,0.4,6.6,1.2s3.7,2,5.1,3.5
			c1.4,1.5,2.5,3.2,3.2,5.3c0.8,2,1.1,4.3,1.1,6.6C526,271.9,525.6,274.2,524.9,276.2z"/>
		<path id="XMLID_160_" class="st1" d="M591.7,268.7c1.9-2.6,2.8-5.7,2.8-9.3c0-3-0.5-5.5-1.6-7.5c-1-2-2.5-3.6-4.2-4.8
			c-1.8-1.2-3.8-2-6.2-2.6c-2.4-0.5-4.8-0.8-7.5-0.8h-20v51.6h11.4v-20.6h5.6l10.8,20.6h13.7l-13.1-21.8
			C587,272.8,589.8,271.2,591.7,268.7z M581.8,262.6c-0.6,0.8-1.4,1.3-2.3,1.7s-2,0.6-3.1,0.7s-2.2,0.1-3.2,0.1h-6.7v-11.7h7.4
			c1,0,2.1,0.1,3.1,0.2c1.1,0.1,2,0.4,2.8,0.8c0.8,0.4,1.5,1,2,1.8c0.5,0.8,0.8,1.8,0.8,3.1C582.7,260.7,582.4,261.8,581.8,262.6z"
			/>
		<polygon id="XMLID_161_" class="st1" points="620.5,295.3 631.9,295.3 631.9,253.8 646.6,253.8 646.6,243.7 605.8,243.7 
			605.8,253.8 620.5,253.8 		"/>
		<path id="XMLID_162_" class="st1" d="M689.1,268.1c-1.8-1.1-3.7-1.9-5.7-2.5s-4-1.2-5.7-1.8c-1.8-0.6-3.2-1.3-4.4-2.1
			s-1.7-2-1.7-3.6c0-1,0.2-1.8,0.7-2.5c0.5-0.7,1.1-1.2,1.9-1.6c0.8-0.4,1.6-0.7,2.5-0.9s1.7-0.3,2.6-0.3c1.4,0,2.9,0.3,4.5,0.8
			c1.6,0.6,2.8,1.4,3.8,2.6l7.8-8.5c-2.2-1.9-4.6-3.3-7.4-4.2c-2.7-0.8-5.5-1.2-8.5-1.2c-2.5,0-5,0.4-7.4,1.1s-4.5,1.8-6.3,3.2
			s-3.3,3.2-4.4,5.2c-1.1,2.1-1.6,4.5-1.6,7.3c0,2.9,0.6,5.2,1.8,6.9c1.2,1.7,2.7,3.2,4.5,4.2c1.8,1.1,3.7,1.9,5.8,2.6
			c2.1,0.6,4,1.3,5.8,1.9s3.3,1.4,4.5,2.3s1.8,2.1,1.8,3.7c0,0.9-0.2,1.7-0.7,2.4s-1.1,1.2-1.8,1.7c-0.8,0.4-1.6,0.8-2.6,1
			c-0.9,0.2-1.9,0.3-2.8,0.3c-1.9,0-3.7-0.4-5.5-1.3s-3.2-2.1-4.4-3.6l-8.1,8.9c2.5,2.3,5.2,3.9,8,5c2.9,1,6,1.5,9.3,1.5
			c2.7,0,5.2-0.3,7.6-1s4.5-1.7,6.3-3.1s3.3-3.2,4.3-5.3c1.1-2.1,1.6-4.6,1.6-7.5c0-3-0.6-5.4-1.8-7.2
			C692.4,270.6,690.9,269.2,689.1,268.1z"/>
		<path id="XMLID_165_" d="M338.9,323l-14.1,32.1h4.3l3.3-7.9h16l3.3,7.9h4.4L342.5,323H338.9z M333.8,343.7l6.7-15.8h0.1l6.3,15.8
			H333.8z"/>
		<path id="XMLID_166_" d="M383.2,340c-0.9-0.7-1.9-1.3-3.1-1.7c-1.2-0.5-2.4-0.9-3.6-1.3c-1.3-0.4-2.3-0.8-3.2-1.2
			c-0.9-0.4-1.6-0.8-2.1-1.3s-0.9-1-1.1-1.5c-0.2-0.6-0.3-1.2-0.3-1.9c0-0.9,0.2-1.8,0.6-2.4c0.4-0.7,0.9-1.3,1.6-1.7s1.4-0.7,2.2-1
			c0.8-0.3,1.6-0.3,2.5-0.3c1.1,0,2.3,0.2,3.3,0.7c1.1,0.5,1.9,1.2,2.5,2.2l3.1-2.7c-1.2-1.4-2.5-2.4-4-2.9c-1.5-0.6-3.2-0.8-5-0.8
			c-1.4,0-2.8,0.2-4.1,0.6c-1.3,0.4-2.5,1-3.5,1.7s-1.8,1.7-2.4,2.9c-0.6,1.1-0.9,2.5-0.9,4c0,1.3,0.2,2.5,0.6,3.4
			c0.4,1,1,1.8,1.7,2.4c0.7,0.7,1.5,1.3,2.5,1.7c1,0.5,2,0.9,3.2,1.2c1.4,0.5,2.7,0.9,3.7,1.3c1.1,0.4,1.9,0.8,2.6,1.2
			c0.7,0.5,1.2,1,1.5,1.6s0.5,1.4,0.5,2.4c0,0.9-0.2,1.7-0.6,2.4s-1,1.3-1.6,1.7c-0.7,0.5-1.4,0.8-2.2,1.1c-0.8,0.2-1.7,0.4-2.5,0.4
			c-1.4,0-2.7-0.3-3.9-0.9c-1.2-0.6-2.2-1.5-2.9-2.7l-3.3,2.7c0.5,0.8,1.2,1.5,1.9,2.1c0.8,0.6,1.6,1,2.4,1.4
			c0.9,0.3,1.8,0.6,2.7,0.8c0.9,0.2,1.9,0.3,2.8,0.3c1.5,0,2.9-0.2,4.2-0.6c1.4-0.4,2.6-1,3.6-1.7c1-0.8,1.9-1.7,2.5-2.9
			c0.6-1.2,1-2.6,1-4.2s-0.3-2.9-0.8-3.9C384.8,341.6,384.1,340.7,383.2,340z"/>
		<path id="XMLID_167_" d="M415.3,340c-0.9-0.7-1.9-1.3-3.1-1.7c-1.2-0.5-2.4-0.9-3.6-1.3c-1.3-0.4-2.3-0.8-3.2-1.2
			c-0.9-0.4-1.6-0.8-2.1-1.3s-0.9-1-1.1-1.5c-0.2-0.6-0.3-1.2-0.3-1.9c0-0.9,0.2-1.8,0.6-2.4c0.4-0.7,0.9-1.3,1.6-1.7
			c0.6-0.4,1.4-0.7,2.2-1c0.8-0.3,1.6-0.3,2.5-0.3c1.1,0,2.2,0.2,3.3,0.7s1.9,1.2,2.5,2.2l3.1-2.7c-1.2-1.4-2.5-2.4-4-2.9
			c-1.5-0.6-3.2-0.8-5-0.8c-1.4,0-2.8,0.2-4.1,0.6s-2.5,1-3.5,1.7c-1,0.8-1.8,1.7-2.4,2.9c-0.6,1.1-0.9,2.5-0.9,4
			c0,1.3,0.2,2.5,0.6,3.4c0.4,1,1,1.8,1.7,2.4c0.7,0.7,1.5,1.3,2.5,1.7c1,0.5,2,0.9,3.2,1.2c1.4,0.5,2.7,0.9,3.7,1.3
			c1.1,0.4,1.9,0.8,2.6,1.2c0.7,0.5,1.2,1,1.5,1.6s0.5,1.4,0.5,2.4c0,0.9-0.2,1.7-0.6,2.4c-0.4,0.7-1,1.3-1.6,1.7
			c-0.7,0.5-1.4,0.8-2.2,1.1c-0.8,0.2-1.7,0.4-2.5,0.4c-1.4,0-2.7-0.3-3.9-0.9c-1.2-0.6-2.2-1.5-2.9-2.7l-3.3,2.7
			c0.5,0.8,1.2,1.5,1.9,2.1c0.8,0.6,1.6,1,2.4,1.4c0.9,0.3,1.8,0.6,2.7,0.8c0.9,0.2,1.9,0.3,2.8,0.3c1.5,0,2.9-0.2,4.2-0.6
			c1.4-0.4,2.6-1,3.6-1.7c1-0.8,1.9-1.7,2.5-2.9s1-2.6,1-4.2s-0.3-2.9-0.8-3.9C416.9,341.6,416.1,340.7,415.3,340z"/>
		<path id="XMLID_170_" d="M458.3,327c-1.5-1.5-3.3-2.7-5.3-3.5s-4.3-1.3-6.7-1.3c-2.4,0-4.7,0.4-6.7,1.3c-2,0.8-3.8,2-5.3,3.5
			s-2.7,3.3-3.5,5.3c-0.8,2.1-1.2,4.3-1.2,6.7s0.4,4.7,1.2,6.7c0.8,2.1,2,3.9,3.5,5.3c1.5,1.5,3.3,2.7,5.3,3.5s4.3,1.3,6.7,1.3
			c2.4,0,4.7-0.4,6.7-1.3c2-0.8,3.8-2,5.3-3.5s2.7-3.3,3.5-5.3c0.8-2.1,1.2-4.3,1.2-6.7s-0.4-4.7-1.2-6.7
			C460.9,330.3,459.8,328.5,458.3,327z M458,344.3c-0.6,1.6-1.5,3-2.6,4.2s-2.5,2.2-4,2.9c-1.6,0.7-3.3,1-5.1,1s-3.6-0.3-5.1-1
			c-1.6-0.7-2.9-1.6-4-2.9c-1.1-1.2-2-2.6-2.6-4.2s-0.9-3.3-0.9-5.2c0-1.8,0.3-3.6,0.9-5.2s1.5-3,2.6-4.2s2.5-2.2,4-2.9s3.3-1,5.1-1
			s3.6,0.3,5.1,1c1.6,0.7,2.9,1.6,4,2.9c1.1,1.2,2,2.6,2.6,4.2s0.9,3.3,0.9,5.2C458.9,340.9,458.6,342.7,458,344.3z"/>
		<path id="XMLID_171_" d="M495.7,351.3c-1.5,0.8-3.3,1.2-5.3,1.2c-1.8,0-3.5-0.3-5-1s-2.8-1.6-3.9-2.8s-1.9-2.6-2.5-4.2
			s-0.9-3.4-0.9-5.2s0.3-3.4,0.9-5.1c0.6-1.6,1.5-3,2.5-4.3c1.1-1.2,2.4-2.2,3.9-2.9s3.1-1.1,4.9-1.1c1.5,0,3,0.3,4.4,1
			s2.6,1.6,3.6,2.9l3.3-2.4c-1.4-1.8-3-3.1-5.1-3.9c-2-0.8-4.1-1.2-6.3-1.2c-2.4,0-4.6,0.4-6.6,1.3s-3.7,2.1-5.2,3.6
			c-1.4,1.5-2.6,3.3-3.4,5.3s-1.2,4.3-1.2,6.6c0,2.4,0.4,4.7,1.2,6.8c0.8,2.1,2,3.8,3.4,5.3c1.5,1.5,3.2,2.7,5.2,3.5
			s4.1,1.3,6.4,1.3c2.6,0,4.9-0.5,6.9-1.4s3.8-2.3,5.2-4.3l-2.9-2.4C498.6,349.4,497.3,350.5,495.7,351.3z"/>
		<rect id="XMLID_172_" x="514.8" y="323" width="3.8" height="32.1"/>
		<path id="XMLID_175_" d="M543.9,323l-14.1,32.1h4.3l3.3-7.9h16l3.3,7.9h4.4L547.5,323H543.9z M538.8,343.7l6.7-15.8h0.1l6.3,15.8
			H538.8z"/>
		<polygon id="XMLID_176_" points="564.5,326.6 575.1,326.6 575.1,355.1 579,355.1 579,326.6 589.6,326.6 589.6,323 564.5,323 		"/>
		<rect id="XMLID_177_" x="600.9" y="323" width="3.8" height="32.1"/>
		<path id="XMLID_180_" d="M646.5,327c-1.5-1.5-3.3-2.7-5.3-3.5s-4.3-1.3-6.7-1.3s-4.7,0.4-6.7,1.3c-2,0.8-3.8,2-5.3,3.5
			s-2.7,3.3-3.5,5.3c-0.8,2.1-1.2,4.3-1.2,6.7s0.4,4.7,1.2,6.7c0.8,2.1,2,3.9,3.5,5.3c1.5,1.5,3.3,2.7,5.3,3.5s4.3,1.3,6.7,1.3
			s4.7-0.4,6.7-1.3c2-0.8,3.8-2,5.3-3.5s2.7-3.3,3.5-5.3c0.8-2.1,1.2-4.3,1.2-6.7s-0.4-4.7-1.2-6.7S648,328.5,646.5,327z
			 M646.2,344.3c-0.6,1.6-1.5,3-2.6,4.2s-2.5,2.2-4,2.9c-1.6,0.7-3.3,1-5.1,1c-1.9,0-3.6-0.3-5.1-1c-1.6-0.7-2.9-1.6-4-2.9
			c-1.1-1.2-2-2.6-2.6-4.2s-0.9-3.3-0.9-5.2c0-1.8,0.3-3.6,0.9-5.2c0.6-1.6,1.5-3,2.6-4.2s2.5-2.2,4-2.9c1.6-0.7,3.3-1,5.1-1
			c1.9,0,3.6,0.3,5.1,1c1.6,0.7,2.9,1.6,4,2.9c1.1,1.2,2,2.6,2.6,4.2s0.9,3.3,0.9,5.2C647.2,340.9,646.9,342.7,646.2,344.3z"/>
		<polygon id="XMLID_181_" points="687.7,349.7 687.6,349.7 669,323 664.2,323 664.2,355.1 668,355.1 668,328.5 668.1,328.5 
			686.7,355.1 691.5,355.1 691.5,323 687.7,323 		"/>
		<polygon id="XMLID_182_" class="st1" points="547.3,18.9 530.9,103.6 595.1,1.3 		"/>
		<polygon id="XMLID_183_" points="672.6,-171.9 629.6,-50.7 715,-187.3 		"/>
		<polygon id="XMLID_184_" points="551.2,-38.8 579.1,-60 608.4,-47.7 618.5,-68.9 608.3,-57 579.1,-79.3 		"/>
		<polygon id="XMLID_185_" points="439.8,-134.8 422.1,-143.6 403.7,-165 411.5,-134.8 431.4,-123.4 		"/>
		<polygon id="XMLID_186_" class="st1" points="412.1,-102.7 442.7,-91.4 460,-72.1 461.2,-103.9 489.1,-144.3 509.9,-145.2 
			530.7,-144.3 558.6,-103.9 559.8,-72.1 577,-91.4 607.6,-102.7 624.5,-152.6 606.4,-121.4 576.4,-112.5 569.9,-128 574.3,-145.5 
			597.2,-155 624.5,-187.3 606.1,-252.1 509.9,-308 413.7,-252.1 395.3,-187.3 422.5,-155 445.4,-145.5 449.9,-128 443.3,-112.5 
			413.3,-121.4 395.3,-152.6 		"/>
		<polygon id="XMLID_187_" points="588.8,-123.4 608.7,-134.8 616.4,-165 598,-143.6 580.4,-134.8 		"/>
		<polygon id="XMLID_188_" points="347.3,-171.9 305,-187.3 390.3,-50.7 		"/>
		<polygon id="XMLID_189_" points="442.1,-79.3 412.9,-57 402.7,-68.9 412.8,-47.7 442.1,-60 470,-38.8 		"/>
		<polygon id="XMLID_190_" class="st2" points="509.9,-132 494.6,-132 471.9,-102.6 471.9,-70.5 493,-78.3 506.2,-102.9 
			509.9,-102.9 513.5,-102.9 526.8,-78.3 547.8,-70.5 547.8,-102.6 525.1,-132 		"/>
		<polygon id="XMLID_191_" class="st1" points="551.2,-27.9 597.1,-41.7 579.6,-47.4 		"/>
		<polygon id="XMLID_192_" class="st1" points="424.1,-41.7 470,-27.9 441.6,-47.4 		"/>
		<polygon id="XMLID_193_" points="512.7,-88.3 509.9,-88.3 507.1,-88.3 500.4,-70.5 500.4,-46.2 491,-67.2 471.9,-58.1 493,-17.9 
			509.9,78.4 526.8,-17.9 547.8,-58.1 528.7,-67.2 519.3,-46.2 519.3,-70.5 		"/>
		<polygon id="XMLID_194_" class="st1" points="471.9,18.9 424.1,1.3 488.3,103.6 		"/>
	</g>
</g>
</svg>
