<?xml version="1.0" encoding="utf-8"?>
<!-- Generator: Adobe Illustrator 19.0.0, SVG Export Plug-In . SVG Version: 6.00 Build 0)  -->
<svg version="1.1" id="Layer_1" xmlns="http://www.w3.org/2000/svg" xmlns:xlink="http://www.w3.org/1999/xlink" x="0px" y="0px"
	 viewBox="0 0 612 792" style="enable-background:new 0 0 612 792;" xml:space="preserve">
<style type="text/css">
	.st0{fill:#FFFFFF;}
</style>
<g id="XMLID_96_">
	<polygon id="XMLID_97_" class="st0" points="124.6,529.3 124.6,580.9 157.1,580.9 157.1,570.4 136,570.4 136,529.3 	"/>
	<path id="XMLID_136_" class="st0" d="M176.9,570H197l4.4,10.9h12.8l-22.5-51.6h-9.4l-22.3,51.6h12.5L176.9,570z M186.8,544.3
		l6.3,16h-12.6L186.8,544.3z"/>
	<polygon id="XMLID_137_" class="st0" points="259.1,565.2 258.9,565.2 237,529.3 221.5,529.3 221.5,580.9 232.9,580.9 232.9,544.2 
		233,544.2 255.6,580.9 270.4,580.9 270.4,529.3 259.1,529.3 	"/>
	<path id="XMLID_138_" class="st0" d="M288.1,574.9c2.5,2.4,5.4,4.2,8.8,5.4c3.4,1.3,7.1,1.9,11.2,1.9c3.8,0,7.5-0.4,11.2-1.2
		c3.6-0.8,7.1-2,10.5-3.8v-27h-20.2v10.5h9.3v8.4c-1.1,0.6-2.5,1.2-4.3,1.7c-1.8,0.6-3.9,0.8-6.4,0.8c-2.4,0-4.6-0.4-6.6-1.2
		c-2-0.8-3.7-2-5.1-3.5c-1.4-1.5-2.5-3.2-3.2-5.2c-0.8-2-1.1-4.2-1.1-6.7c0-2.4,0.4-4.6,1.1-6.6c0.8-2,1.8-3.8,3.2-5.3
		c1.4-1.5,3.1-2.6,5.1-3.5c2-0.8,4.2-1.2,6.6-1.2c2.9,0,5.3,0.4,7.3,1.2c1.9,0.8,3.7,2,5.2,3.6l8-8.8c-2.6-2.4-5.7-4.1-9.2-5.1
		c-3.5-1-7.3-1.5-11.4-1.5c-4,0-7.8,0.6-11.2,1.9c-3.4,1.3-6.3,3.1-8.8,5.4c-2.5,2.4-4.4,5.2-5.8,8.6s-2.1,7.1-2.1,11.2
		s0.7,7.9,2.1,11.2C283.7,569.7,285.6,572.6,288.1,574.9z"/>
	<path id="XMLID_141_" class="st0" d="M336.5,580.9H349l4.3-10.9h20.1l4.4,10.9h12.8l-22.5-51.6h-9.4L336.5,580.9z M369.5,560.4
		h-12.6l6.3-16L369.5,560.4z"/>
	<path id="XMLID_144_" class="st0" d="M409.3,560.3h5.6l10.8,20.6h13.6l-13.1-21.8c3.6-0.7,6.4-2.3,8.3-4.8c1.9-2.6,2.8-5.7,2.8-9.3
		c0-3-0.5-5.5-1.6-7.5c-1-2-2.5-3.6-4.2-4.8c-1.8-1.2-3.8-2-6.2-2.6c-2.4-0.5-4.8-0.8-7.5-0.8h-20v51.6h11.4V560.3z M409.3,538.9
		h7.4c1,0,2.1,0.1,3.1,0.2c1.1,0.1,2,0.4,2.8,0.8c0.8,0.4,1.5,1,2,1.8c0.5,0.8,0.8,1.8,0.8,3.1c0,1.4-0.3,2.5-0.9,3.3
		c-0.6,0.8-1.4,1.3-2.3,1.7c-0.9,0.4-2,0.6-3.1,0.7c-1.1,0.1-2.2,0.1-3.2,0.1h-6.7V538.9z"/>
	<path id="XMLID_147_" class="st0" d="M464.2,529.3l-22.3,51.6h12.5l4.3-10.9h20.1l4.4,10.9h12.8l-22.5-51.6H464.2z M462.3,560.4
		l6.3-16l6.3,16H462.3z"/>
	<path id="XMLID_150_" class="st0" d="M153.5,637.2c-1.4-1.6-3.2-2.9-5.2-3.8c-2.1-0.9-4.4-1.3-6.9-1.3c-2.7,0-5.3,0.4-7.7,1.3
		c-2.4,0.9-4.5,2.1-6.3,3.8c-1.8,1.6-3.2,3.6-4.2,5.9c-1,2.3-1.5,4.8-1.5,7.7c0,2.8,0.5,5.4,1.5,7.7c1,2.3,2.4,4.2,4.2,5.9
		c1.8,1.6,3.9,2.9,6.3,3.8c2.4,0.9,5,1.3,7.7,1.3c2.9,0,5.6-0.6,8.3-1.8c2.7-1.2,4.9-2.9,6.6-5.2l-7.7-5.6c-0.9,1.3-2,2.3-3.2,3.1
		c-1.2,0.8-2.8,1.2-4.6,1.2c-2.1,0-3.9-0.6-5.4-1.9c-1.5-1.2-2.4-2.9-2.8-5H158v-3.4c0-2.8-0.4-5.4-1.2-7.7
		C156.1,640.8,155,638.8,153.5,637.2z M132.7,646.7c0-0.9,0.3-1.7,0.6-2.5c0.4-0.8,0.9-1.5,1.5-2.1c0.7-0.6,1.4-1.1,2.4-1.5
		c0.9-0.4,2-0.6,3.2-0.6c2,0,3.6,0.7,4.9,2s1.9,2.9,1.8,4.7H132.7z"/>
	<path id="XMLID_151_" class="st0" d="M203,665.6c1.8-1.4,3.3-3.2,4.3-5.3c1.1-2.1,1.6-4.6,1.6-7.5c0-3-0.6-5.4-1.7-7.2
		c-1.2-1.8-2.6-3.2-4.4-4.3c-1.8-1.1-3.7-1.9-5.7-2.5c-2-0.6-4-1.2-5.7-1.8c-1.8-0.6-3.2-1.3-4.4-2.1c-1.2-0.8-1.7-2-1.7-3.6
		c0-1,0.2-1.8,0.7-2.5c0.5-0.7,1.1-1.2,1.9-1.6c0.8-0.4,1.6-0.7,2.5-0.9c0.9-0.2,1.7-0.3,2.6-0.3c1.4,0,2.9,0.3,4.5,0.8
		c1.6,0.6,2.8,1.4,3.8,2.6l7.8-8.5c-2.2-1.9-4.6-3.3-7.4-4.2c-2.7-0.8-5.5-1.2-8.5-1.2c-2.5,0-5,0.4-7.4,1.1
		c-2.4,0.7-4.5,1.8-6.3,3.2c-1.8,1.4-3.3,3.2-4.4,5.2c-1.1,2.1-1.6,4.5-1.6,7.3c0,2.9,0.6,5.2,1.8,6.9s2.7,3.2,4.5,4.2
		c1.8,1.1,3.7,1.9,5.8,2.6c2.1,0.6,4,1.3,5.8,1.9c1.8,0.6,3.3,1.4,4.5,2.3c1.2,0.9,1.8,2.1,1.8,3.7c0,0.9-0.2,1.7-0.7,2.4
		c-0.5,0.7-1.1,1.2-1.8,1.7c-0.8,0.4-1.6,0.8-2.6,1c-0.9,0.2-1.9,0.3-2.8,0.3c-1.9,0-3.7-0.4-5.5-1.3c-1.8-0.9-3.2-2.1-4.4-3.6
		l-8.1,8.9c2.5,2.3,5.2,3.9,8,5c2.9,1,6,1.5,9.3,1.5c2.7,0,5.2-0.3,7.6-1C199.1,668,201.2,667,203,665.6z"/>
	<path id="XMLID_154_" class="st0" d="M259.9,620c-1.8-1.2-3.9-2-6.2-2.5c-2.4-0.5-4.9-0.7-7.6-0.7h-19.2v51.6h11.4v-20.1h8.3
		c2.7,0,5.2-0.3,7.6-0.8c2.3-0.5,4.3-1.4,6.1-2.6c1.7-1.2,3-2.8,4-4.9c1-2,1.5-4.6,1.5-7.6c0-3.1-0.5-5.6-1.6-7.6
		C263.1,622.8,261.7,621.2,259.9,620z M253.2,635.5c-0.5,0.8-1.1,1.4-1.8,1.9c-0.8,0.5-1.6,0.8-2.6,1c-0.9,0.2-1.9,0.3-3,0.3h-7.6
		v-12.2h5.8c1.1,0,2.2,0.1,3.4,0.2c1.2,0.1,2.2,0.4,3.2,0.8c0.9,0.4,1.7,1.1,2.3,1.9c0.6,0.8,0.9,1.9,0.9,3.2
		C253.9,633.7,253.7,634.7,253.2,635.5z"/>
	<path id="XMLID_157_" class="st0" d="M333.2,653.8c1.4-3.4,2.1-7.1,2.1-11.2s-0.7-7.9-2.1-11.2c-1.4-3.4-3.3-6.2-5.8-8.6
		c-2.5-2.4-5.4-4.2-8.8-5.4c-3.4-1.3-7.1-1.9-11.2-1.9c-4,0-7.8,0.6-11.2,1.9c-3.4,1.3-6.3,3.1-8.8,5.4c-2.5,2.4-4.4,5.2-5.8,8.6
		c-1.4,3.4-2.1,7.1-2.1,11.2s0.7,7.9,2.1,11.2c1.4,3.4,3.3,6.2,5.8,8.6c2.5,2.4,5.4,4.2,8.8,5.4c3.4,1.3,7.1,1.9,11.2,1.9
		c4,0,7.8-0.6,11.2-1.9c3.4-1.3,6.3-3.1,8.8-5.4C329.9,660,331.9,657.2,333.2,653.8z M322.4,649.3c-0.8,2-1.8,3.8-3.2,5.2
		c-1.4,1.5-3.1,2.6-5.1,3.5c-2,0.8-4.2,1.2-6.6,1.2s-4.6-0.4-6.6-1.2c-2-0.8-3.7-2-5.1-3.5c-1.4-1.5-2.5-3.2-3.2-5.2
		c-0.8-2-1.1-4.2-1.1-6.7c0-2.4,0.4-4.6,1.1-6.6c0.8-2,1.8-3.8,3.2-5.3c1.4-1.5,3.1-2.6,5.1-3.5c2-0.8,4.2-1.2,6.6-1.2
		s4.6,0.4,6.6,1.2c2,0.8,3.7,2,5.1,3.5c1.4,1.5,2.5,3.2,3.2,5.3c0.8,2,1.1,4.3,1.1,6.6C323.5,645,323.1,647.3,322.4,649.3z"/>
	<path id="XMLID_160_" class="st0" d="M389.2,641.8c1.9-2.6,2.8-5.7,2.8-9.3c0-3-0.5-5.5-1.6-7.5c-1-2-2.5-3.6-4.2-4.8
		c-1.8-1.2-3.8-2-6.2-2.6c-2.4-0.5-4.8-0.8-7.5-0.8h-20v51.6h11.4v-20.6h5.6l10.8,20.6H394l-13.1-21.8
		C384.5,645.9,387.3,644.3,389.2,641.8z M379.3,635.7c-0.6,0.8-1.4,1.3-2.3,1.7c-0.9,0.4-2,0.6-3.1,0.7c-1.1,0.1-2.2,0.1-3.2,0.1
		h-6.7v-11.7h7.4c1,0,2.1,0.1,3.1,0.2c1.1,0.1,2,0.4,2.8,0.8c0.8,0.4,1.5,1,2,1.8c0.5,0.8,0.8,1.8,0.8,3.1
		C380.2,633.8,379.9,634.9,379.3,635.7z"/>
	<polygon id="XMLID_161_" class="st0" points="418,668.4 429.4,668.4 429.4,626.9 444.1,626.9 444.1,616.8 403.3,616.8 403.3,626.9 
		418,626.9 	"/>
	<path id="XMLID_162_" class="st0" d="M486.6,641.2c-1.8-1.1-3.7-1.9-5.7-2.5c-2-0.6-4-1.2-5.7-1.8c-1.8-0.6-3.2-1.3-4.4-2.1
		c-1.2-0.8-1.7-2-1.7-3.6c0-1,0.2-1.8,0.7-2.5c0.5-0.7,1.1-1.2,1.9-1.6c0.8-0.4,1.6-0.7,2.5-0.9c0.9-0.2,1.7-0.3,2.6-0.3
		c1.4,0,2.9,0.3,4.5,0.8c1.6,0.6,2.8,1.4,3.8,2.6l7.8-8.5c-2.2-1.9-4.6-3.3-7.4-4.2c-2.7-0.8-5.5-1.2-8.5-1.2c-2.5,0-5,0.4-7.4,1.1
		s-4.5,1.8-6.3,3.2c-1.8,1.4-3.3,3.2-4.4,5.2c-1.1,2.1-1.6,4.5-1.6,7.3c0,2.9,0.6,5.2,1.8,6.9c1.2,1.7,2.7,3.2,4.5,4.2
		c1.8,1.1,3.7,1.9,5.8,2.6c2.1,0.6,4,1.3,5.8,1.9c1.8,0.6,3.3,1.4,4.5,2.3c1.2,0.9,1.8,2.1,1.8,3.7c0,0.9-0.2,1.7-0.7,2.4
		c-0.5,0.7-1.1,1.2-1.8,1.7c-0.8,0.4-1.6,0.8-2.6,1c-0.9,0.2-1.9,0.3-2.8,0.3c-1.9,0-3.7-0.4-5.5-1.3c-1.8-0.9-3.2-2.1-4.4-3.6
		l-8.1,8.9c2.5,2.3,5.2,3.9,8,5c2.9,1,6,1.5,9.3,1.5c2.7,0,5.2-0.3,7.6-1c2.4-0.7,4.5-1.7,6.3-3.1c1.8-1.4,3.3-3.2,4.3-5.3
		c1.1-2.1,1.6-4.6,1.6-7.5c0-3-0.6-5.4-1.8-7.2C489.9,643.7,488.4,642.3,486.6,641.2z"/>
	<path id="XMLID_165_" class="st0" d="M136.4,696.1l-14.1,32.1h4.3l3.3-7.9h16l3.3,7.9h4.4l-13.6-32.1H136.4z M131.3,716.8L138,701
		h0.1l6.3,15.8H131.3z"/>
	<path id="XMLID_166_" class="st0" d="M180.7,713.1c-0.9-0.7-1.9-1.3-3.1-1.7c-1.2-0.5-2.4-0.9-3.6-1.3c-1.3-0.4-2.3-0.8-3.2-1.2
		c-0.9-0.4-1.6-0.8-2.1-1.3c-0.5-0.5-0.9-1-1.1-1.5c-0.2-0.6-0.3-1.2-0.3-1.9c0-0.9,0.2-1.8,0.6-2.4c0.4-0.7,0.9-1.3,1.6-1.7
		c0.7-0.4,1.4-0.7,2.2-1s1.6-0.3,2.5-0.3c1.1,0,2.3,0.2,3.3,0.7c1.1,0.5,1.9,1.2,2.5,2.2l3.1-2.7c-1.2-1.4-2.5-2.4-4-2.9
		c-1.5-0.6-3.2-0.8-5-0.8c-1.4,0-2.8,0.2-4.1,0.6c-1.3,0.4-2.5,1-3.5,1.7s-1.8,1.7-2.4,2.9c-0.6,1.1-0.9,2.5-0.9,4
		c0,1.3,0.2,2.5,0.6,3.4c0.4,1,1,1.8,1.7,2.4c0.7,0.7,1.5,1.3,2.5,1.7c1,0.5,2,0.9,3.2,1.2c1.4,0.5,2.7,0.9,3.7,1.3
		c1.1,0.4,1.9,0.8,2.6,1.2c0.7,0.5,1.2,1,1.5,1.6c0.3,0.6,0.5,1.4,0.5,2.4c0,0.9-0.2,1.7-0.6,2.4c-0.4,0.7-1,1.3-1.6,1.7
		c-0.7,0.5-1.4,0.8-2.2,1.1c-0.8,0.2-1.7,0.4-2.5,0.4c-1.4,0-2.7-0.3-3.9-0.9c-1.2-0.6-2.2-1.5-2.9-2.7l-3.3,2.7
		c0.5,0.8,1.2,1.5,1.9,2.1c0.8,0.6,1.6,1,2.4,1.4c0.9,0.3,1.8,0.6,2.7,0.8c0.9,0.2,1.9,0.3,2.8,0.3c1.5,0,2.9-0.2,4.2-0.6
		c1.4-0.4,2.6-1,3.6-1.7c1-0.8,1.9-1.7,2.5-2.9c0.6-1.2,1-2.6,1-4.2c0-1.6-0.3-2.9-0.8-3.9C182.3,714.7,181.6,713.8,180.7,713.1z"/>
	<path id="XMLID_167_" class="st0" d="M212.8,713.1c-0.9-0.7-1.9-1.3-3.1-1.7c-1.2-0.5-2.4-0.9-3.6-1.3c-1.3-0.4-2.3-0.8-3.2-1.2
		c-0.9-0.4-1.6-0.8-2.1-1.3c-0.5-0.5-0.9-1-1.1-1.5c-0.2-0.6-0.3-1.2-0.3-1.9c0-0.9,0.2-1.8,0.6-2.4c0.4-0.7,0.9-1.3,1.6-1.7
		c0.6-0.4,1.4-0.7,2.2-1s1.6-0.3,2.5-0.3c1.1,0,2.2,0.2,3.3,0.7c1.1,0.5,1.9,1.2,2.5,2.2l3.1-2.7c-1.2-1.4-2.5-2.4-4-2.9
		c-1.5-0.6-3.2-0.8-5-0.8c-1.4,0-2.8,0.2-4.1,0.6s-2.5,1-3.5,1.7c-1,0.8-1.8,1.7-2.4,2.9c-0.6,1.1-0.9,2.5-0.9,4
		c0,1.3,0.2,2.5,0.6,3.4c0.4,1,1,1.8,1.7,2.4c0.7,0.7,1.5,1.3,2.5,1.7c1,0.5,2,0.9,3.2,1.2c1.4,0.5,2.7,0.9,3.7,1.3
		c1.1,0.4,1.9,0.8,2.6,1.2c0.7,0.5,1.2,1,1.5,1.6c0.3,0.6,0.5,1.4,0.5,2.4c0,0.9-0.2,1.7-0.6,2.4c-0.4,0.7-1,1.3-1.6,1.7
		c-0.7,0.5-1.4,0.8-2.2,1.1c-0.8,0.2-1.7,0.4-2.5,0.4c-1.4,0-2.7-0.3-3.9-0.9c-1.2-0.6-2.2-1.5-2.9-2.7l-3.3,2.7
		c0.5,0.8,1.2,1.5,1.9,2.1c0.8,0.6,1.6,1,2.4,1.4c0.9,0.3,1.8,0.6,2.7,0.8c0.9,0.2,1.9,0.3,2.8,0.3c1.5,0,2.9-0.2,4.2-0.6
		c1.4-0.4,2.6-1,3.6-1.7c1-0.8,1.9-1.7,2.5-2.9c0.6-1.2,1-2.6,1-4.2c0-1.6-0.3-2.9-0.8-3.9C214.4,714.7,213.6,713.8,212.8,713.1z"/>
	<path id="XMLID_170_" class="st0" d="M255.8,700.1c-1.5-1.5-3.3-2.7-5.3-3.5c-2-0.8-4.3-1.3-6.7-1.3c-2.4,0-4.7,0.4-6.7,1.3
		c-2,0.8-3.8,2-5.3,3.5c-1.5,1.5-2.7,3.3-3.5,5.3c-0.8,2.1-1.2,4.3-1.2,6.7c0,2.4,0.4,4.7,1.2,6.7c0.8,2.1,2,3.9,3.5,5.3
		c1.5,1.5,3.3,2.7,5.3,3.5c2,0.8,4.3,1.3,6.7,1.3c2.4,0,4.7-0.4,6.7-1.3c2-0.8,3.8-2,5.3-3.5s2.7-3.3,3.5-5.3
		c0.8-2.1,1.2-4.3,1.2-6.7c0-2.4-0.4-4.7-1.2-6.7C258.4,703.4,257.3,701.6,255.8,700.1z M255.5,717.4c-0.6,1.6-1.5,3-2.6,4.2
		c-1.1,1.2-2.5,2.2-4,2.9c-1.6,0.7-3.3,1-5.1,1s-3.6-0.3-5.1-1c-1.6-0.7-2.9-1.6-4-2.9c-1.1-1.2-2-2.6-2.6-4.2
		c-0.6-1.6-0.9-3.3-0.9-5.2c0-1.8,0.3-3.6,0.9-5.2c0.6-1.6,1.5-3,2.6-4.2c1.1-1.2,2.5-2.2,4-2.9s3.3-1,5.1-1s3.6,0.3,5.1,1
		c1.6,0.7,2.9,1.6,4,2.9c1.1,1.2,2,2.6,2.6,4.2c0.6,1.6,0.9,3.3,0.9,5.2C256.4,714,256.1,715.8,255.5,717.4z"/>
	<path id="XMLID_171_" class="st0" d="M293.2,724.4c-1.5,0.8-3.3,1.2-5.3,1.2c-1.8,0-3.5-0.3-5-1c-1.5-0.7-2.8-1.6-3.9-2.8
		c-1.1-1.2-1.9-2.6-2.5-4.2c-0.6-1.6-0.9-3.4-0.9-5.2c0-1.8,0.3-3.4,0.9-5.1c0.6-1.6,1.5-3,2.5-4.3c1.1-1.2,2.4-2.2,3.9-2.9
		c1.5-0.7,3.1-1.1,4.9-1.1c1.5,0,3,0.3,4.4,1c1.4,0.7,2.6,1.6,3.6,2.9l3.3-2.4c-1.4-1.8-3-3.1-5.1-3.9c-2-0.8-4.1-1.2-6.3-1.2
		c-2.4,0-4.6,0.4-6.6,1.3c-2,0.9-3.7,2.1-5.2,3.6c-1.4,1.5-2.6,3.3-3.4,5.3s-1.2,4.3-1.2,6.6c0,2.4,0.4,4.7,1.2,6.8s2,3.8,3.4,5.3
		c1.5,1.5,3.2,2.7,5.2,3.5c2,0.8,4.1,1.3,6.4,1.3c2.6,0,4.9-0.5,6.9-1.4c2-0.9,3.8-2.3,5.2-4.3l-2.9-2.4
		C296.1,722.5,294.8,723.6,293.2,724.4z"/>
	<rect id="XMLID_172_" x="312.3" y="696.1" class="st0" width="3.8" height="32.1"/>
	<path id="XMLID_175_" class="st0" d="M341.4,696.1l-14.1,32.1h4.3l3.3-7.9h16l3.3,7.9h4.4l-13.6-32.1H341.4z M336.3,716.8L343,701
		h0.1l6.3,15.8H336.3z"/>
	<polygon id="XMLID_176_" class="st0" points="362,699.7 372.6,699.7 372.6,728.2 376.5,728.2 376.5,699.7 387.1,699.7 387.1,696.1 
		362,696.1 	"/>
	<rect id="XMLID_177_" x="398.4" y="696.1" class="st0" width="3.8" height="32.1"/>
	<path id="XMLID_180_" class="st0" d="M444,700.1c-1.5-1.5-3.3-2.7-5.3-3.5c-2-0.8-4.3-1.3-6.7-1.3s-4.7,0.4-6.7,1.3
		c-2,0.8-3.8,2-5.3,3.5c-1.5,1.5-2.7,3.3-3.5,5.3c-0.8,2.1-1.2,4.3-1.2,6.7c0,2.4,0.4,4.7,1.2,6.7c0.8,2.1,2,3.9,3.5,5.3
		c1.5,1.5,3.3,2.7,5.3,3.5c2,0.8,4.3,1.3,6.7,1.3s4.7-0.4,6.7-1.3c2-0.8,3.8-2,5.3-3.5c1.5-1.5,2.7-3.3,3.5-5.3
		c0.8-2.1,1.2-4.3,1.2-6.7c0-2.4-0.4-4.7-1.2-6.7C446.7,703.4,445.5,701.6,444,700.1z M443.7,717.4c-0.6,1.6-1.5,3-2.6,4.2
		c-1.1,1.2-2.5,2.2-4,2.9c-1.6,0.7-3.3,1-5.1,1c-1.9,0-3.6-0.3-5.1-1c-1.6-0.7-2.9-1.6-4-2.9c-1.1-1.2-2-2.6-2.6-4.2
		c-0.6-1.6-0.9-3.3-0.9-5.2c0-1.8,0.3-3.6,0.9-5.2c0.6-1.6,1.5-3,2.6-4.2c1.1-1.2,2.5-2.2,4-2.9c1.6-0.7,3.3-1,5.1-1
		c1.9,0,3.6,0.3,5.1,1c1.6,0.7,2.9,1.6,4,2.9c1.1,1.2,2,2.6,2.6,4.2c0.6,1.6,0.9,3.3,0.9,5.2C444.7,714,444.4,715.8,443.7,717.4z"/>
	<polygon id="XMLID_181_" class="st0" points="485.2,722.8 485.1,722.8 466.5,696.1 461.7,696.1 461.7,728.2 465.5,728.2 
		465.5,701.6 465.6,701.6 484.2,728.2 489,728.2 489,696.1 485.2,696.1 	"/>
	<polygon id="XMLID_182_" class="st0" points="344.8,392 328.4,476.7 392.6,374.4 	"/>
	<polygon id="XMLID_183_" class="st0" points="470.1,201.2 427.1,322.4 512.5,185.8 	"/>
	<polygon id="XMLID_184_" class="st0" points="348.7,334.3 376.6,313.1 405.9,325.4 416,304.2 405.8,316.1 376.6,293.8 	"/>
	<polygon id="XMLID_185_" class="st0" points="237.3,238.3 219.6,229.5 201.2,208.1 209,238.3 228.9,249.7 	"/>
	<polygon id="XMLID_186_" class="st0" points="209.6,270.4 240.2,281.7 257.5,301 258.7,269.2 286.6,228.8 307.4,227.9 328.2,228.8 
		356.1,269.2 357.3,301 374.5,281.7 405.1,270.4 422,220.5 403.9,251.7 373.9,260.6 367.4,245.1 371.8,227.6 394.7,218.1 422,185.8 
		403.6,121 307.4,65.1 211.2,121 192.8,185.8 220,218.1 242.9,227.6 247.4,245.1 240.8,260.6 210.8,251.7 192.8,220.5 	"/>
	<polygon id="XMLID_187_" class="st0" points="386.3,249.7 406.2,238.3 413.9,208.1 395.5,229.5 377.9,238.3 	"/>
	<polygon id="XMLID_188_" class="st0" points="144.8,201.2 102.5,185.8 187.8,322.4 	"/>
	<polygon id="XMLID_189_" class="st0" points="239.6,293.8 210.4,316.1 200.2,304.2 210.3,325.4 239.6,313.1 267.5,334.3 	"/>
	<polygon id="XMLID_190_" class="st0" points="307.4,241.1 292.1,241.1 269.4,270.5 269.4,302.6 290.5,294.8 303.7,270.2 
		307.4,270.2 311,270.2 324.3,294.8 345.3,302.6 345.3,270.5 322.6,241.1 	"/>
	<polygon id="XMLID_191_" class="st0" points="348.7,345.2 394.6,331.4 377.1,325.7 	"/>
	<polygon id="XMLID_192_" class="st0" points="221.6,331.4 267.5,345.2 239.1,325.7 	"/>
	<polygon id="XMLID_193_" class="st0" points="310.2,284.8 307.4,284.8 304.6,284.8 297.9,302.6 297.9,326.9 288.5,305.9 269.4,315 
		290.5,355.2 307.4,451.5 324.3,355.2 345.3,315 326.2,305.9 316.8,326.9 316.8,302.6 	"/>
	<polygon id="XMLID_194_" class="st0" points="269.4,392 221.6,374.4 285.8,476.7 	"/>
</g>
</svg>
